<svg width="56" height="57" viewBox="0 0 56 57" fill="none" xmlns="http://www.w3.org/2000/svg">
<path d="M43.0149 41.8887L47.0125 45.8875C51.1251 41.4101 53.4839 35.713 53.7422 29.638H48.0932C47.8442 34.2043 46.0695 38.4851 43.0149 41.8887V41.8887ZM47.0295 49.0649L39.8753 41.9092L40.6663 41.1196C44.0343 37.7549 45.889 33.2806 45.889 28.5207V27.4035H56V28.5207C56 35.983 53.0951 42.9988 47.8197 48.2744L47.0295 49.0649" fill="#191148"/>
<path d="M19.2778 4.37423L21.4395 9.59398C23.2169 8.96967 25.0604 8.60231 26.9442 8.49773V2.84451C24.3043 2.95712 21.7345 3.47016 19.2778 4.37423ZM20.219 12.4858L16.3518 3.15063L17.3789 2.72071C20.7611 1.3045 24.3552 0.586352 28.0615 0.586352H29.1788V10.7L28.0619 10.7009C25.7107 10.7023 23.4189 11.159 21.2514 12.0577L20.219 12.4858" fill="#191148"/>
<path d="M34.6476 10.8928C39.7388 12.7985 43.7895 16.8452 45.698 21.9343H54.1787C51.764 12.3663 44.217 4.81536 34.6476 2.40299V10.8928Z" fill="white" stroke="#191148" stroke-width="2"/>
<path d="M36.0823 44.4364C33.6265 45.6779 30.8976 46.3384 28.0664 46.3384C18.2401 46.3384 10.2456 38.3443 10.2456 28.518C10.2456 23.2249 12.5696 18.3502 16.4345 15.028L12.4351 5.37281C4.82499 10.488 0.135498 19.0822 0.135498 28.5238C0.135498 43.9233 12.663 56.4512 28.0615 56.4512C33.6292 56.4512 38.9457 54.8365 43.4779 51.8329L36.0823 44.4364Z" fill="#FCC845"/>
<path d="M21.9307 36.2366L20.3504 34.6568L34.2048 20.8017L35.7851 22.3815L21.9307 36.2366Z" fill="#191148"/>
<path d="M32.3836 31.3397C31.5595 31.3397 30.8896 32.0096 30.8896 32.8332C30.8896 33.6578 31.5595 34.329 32.3836 34.329C33.2073 34.329 33.8777 33.6578 33.8777 32.8332C33.8777 32.0096 33.2073 31.3397 32.3836 31.3397ZM32.3836 36.5635C30.3274 36.5635 28.655 34.8898 28.655 32.8332C28.655 30.7775 30.3274 29.1052 32.3836 29.1052C34.4395 29.1052 36.1123 30.7775 36.1123 32.8332C36.1123 34.8898 34.4395 36.5635 32.3836 36.5635Z" fill="#191148"/>
<path d="M23.7528 22.7091C22.9287 22.7091 22.2579 23.3794 22.2579 24.2031C22.2579 25.0276 22.9287 25.6984 23.7528 25.6984C24.5769 25.6984 25.2473 25.0276 25.2473 24.2031C25.2473 23.3794 24.5769 22.7091 23.7528 22.7091ZM23.7528 27.9329C21.6966 27.9329 20.0233 26.2601 20.0233 24.2031C20.0233 22.1474 21.6966 20.4746 23.7528 20.4746C25.8091 20.4746 27.4819 22.1474 27.4819 24.2031C27.4819 26.2601 25.8091 27.9329 23.7528 27.9329Z" fill="#191148"/>
</svg>
