<svg width="22" height="24" viewBox="0 0 22 24" fill="none" xmlns="http://www.w3.org/2000/svg">
<path d="M0.771484 1.61058C0.771484 0.971247 1.29065 0.453247 1.92998 0.453247H20.613C20.9194 0.455382 21.2126 0.577964 21.4294 0.794512C21.6462 1.01106 21.769 1.30419 21.7715 1.61058V22.6292C21.7712 22.9363 21.649 23.2307 21.4318 23.4477C21.2145 23.6647 20.92 23.7866 20.613 23.7866H1.92998C1.62359 23.7844 1.33034 23.6619 1.11357 23.4453C0.896805 23.2288 0.773928 22.9356 0.771484 22.6292V1.61058ZM19.4382 10.9532V2.78658H3.10482V10.9532H19.4382ZM19.4382 13.2866H3.10482V21.4532H19.4382V13.2866ZM7.77148 5.11991H14.7715V7.45325H7.77148V5.11991ZM7.77148 15.6199H14.7715V17.9532H7.77148V15.6199Z" fill="#4E3BF0"/>
</svg>
