<svg width="47" height="62" viewBox="0 0 47 62" fill="none" xmlns="http://www.w3.org/2000/svg">
<path d="M34.5318 38.441C34.5318 44.6002 29.536 49.5933 23.3795 49.5933C17.2208 49.5933 12.2273 44.6002 12.2273 38.441C12.2273 32.2827 17.2208 27.2888 23.3795 27.2888C29.536 27.2888 34.5318 32.2827 34.5318 38.441Z" fill="#FCC845"/>
<path d="M15.7691 17.7066C13.7116 17.7066 11.7083 18.4326 10.1279 19.7509C8.54835 21.0696 7.47547 22.9108 7.10722 24.9355L3.19528 46.4521C2.62128 49.6093 3.47157 52.8334 5.52768 55.2979C7.58425 57.7623 10.6045 59.1752 13.8136 59.1752H32.9449C36.1545 59.1752 39.1743 57.7623 41.2308 55.2979C43.2874 52.8334 44.1372 49.6093 43.5628 46.4521L39.6508 24.9355C39.283 22.9113 38.2106 21.07 36.6302 19.7509C35.0507 18.4326 33.0473 17.7066 30.989 17.7066H15.7691ZM32.9449 61.4512H13.8136C9.9276 61.4512 6.27058 59.7401 3.78021 56.7563C1.2903 53.7725 0.260651 49.8683 0.956187 46.0447L4.86812 24.5281C5.33151 21.9804 6.68161 19.663 8.6699 18.0034C10.6586 16.3442 13.18 15.4306 15.7691 15.4306H30.989C33.5795 15.4306 36.1008 16.3442 38.0886 18.0034C40.0774 19.6635 41.4275 21.9808 41.8904 24.5286L45.8023 46.0447C46.4979 49.8678 45.4682 53.772 42.9783 56.7563C40.488 59.7401 36.8309 61.4512 32.9449 61.4512" fill="#191148"/>
<path d="M11.1378 25.6687L8.89868 25.2613C9.19456 23.6326 10.023 22.2106 11.2948 21.1491C12.5662 20.088 14.1134 19.5277 15.7689 19.5277V21.8036C14.6528 21.8036 13.6099 22.1815 12.7528 22.8961C11.8957 23.6117 11.3372 24.5703 11.1378 25.6687" fill="#191148"/>
<path d="M17.9835 15.4311H28.7748V12.5092H17.9835V15.4311ZM31.0508 17.707H15.7076V10.2332H31.0508V17.707Z" fill="#191148"/>
<path d="M20.0416 4.30151L18.0237 3.24954C19.0684 1.24487 21.1204 -6.82566e-05 23.3795 -6.82566e-05C25.6382 -6.82566e-05 27.6906 1.24487 28.7349 3.24954L26.717 4.30151C26.0656 3.05201 24.7865 2.2759 23.3795 2.2759C21.972 2.2759 20.6929 3.05201 20.0416 4.30151Z" fill="#191148"/>
<path d="M30.3662 12.5088H16.3922L10.1506 6.59445L10.3627 5.91712C11.1556 3.38351 13.4726 1.68109 16.1286 1.68109C17.2024 1.68109 18.2526 1.96468 19.1657 2.49999L19.2244 2.53549C19.2736 2.56553 19.3236 2.5965 19.3719 2.62881C20.1926 3.15138 20.8795 3.8692 21.3602 4.7063L19.386 5.83929C19.086 5.31672 18.655 4.8679 18.1388 4.54198L17.9904 4.44868C17.4501 4.13232 16.7978 3.95706 16.1286 3.95706C14.7048 3.95706 13.4371 4.74181 12.7962 5.96582L17.2989 10.2328H29.4594L33.9627 5.96582C33.3209 4.74181 32.0532 3.95706 30.6298 3.95706C29.9606 3.95706 29.3083 4.13231 28.7448 4.46324L28.6196 4.54198C28.103 4.86836 27.6719 5.31672 27.3724 5.83929L25.3977 4.7063C25.8784 3.86966 26.5658 3.15137 27.387 2.62835C27.4366 2.59557 27.4871 2.56416 27.5372 2.53366L27.5922 2.49999C28.5054 1.96468 29.5555 1.68109 30.6298 1.68109C33.2849 1.68109 35.6023 3.38353 36.3957 5.91668L36.6083 6.59445L30.3662 12.5088" fill="#191148"/>
</svg>
