<svg width="48" height="57" viewBox="0 0 48 57" fill="none" xmlns="http://www.w3.org/2000/svg">
<path d="M22.8338 35.0677L19.3603 38.5413V26.0003C19.3603 19.8577 23.4412 14.6714 29.0388 12.9954V10.8109H4.93091V46.2349H29.0388V39.0048C26.618 38.2789 24.4798 36.9009 22.8338 35.0677" fill="#FCC845"/>
<path d="M18.0615 7.78784H15.9095V5.71878H18.0615V7.78784Z" fill="#191148"/>
<path d="M21.1611 51.3171H12.8087V49.2481H21.1611V51.3171Z" fill="#191148"/>
<path d="M29.0989 56.4507H4.87359C2.18625 56.4507 0 54.2662 0 51.581V5.46038C0 2.77268 2.18625 0.586115 4.87359 0.586115H29.0989C31.7853 0.586115 33.9711 2.77268 33.9711 5.46038V12.424H31.902V5.46038C31.902 3.91356 30.6445 2.65517 29.0989 2.65517H4.87359C3.32713 2.65517 2.06906 3.91356 2.06906 5.46038V51.581C2.06906 53.1253 3.32713 54.3816 4.87359 54.3816H29.0989C30.6445 54.3816 31.902 53.1253 31.902 51.581V39.5759H33.9711V51.581C33.9711 54.2662 31.7853 56.4507 29.0989 56.4507Z" fill="#191148"/>
<path d="M33.8497 32.5232H32.021C31.0109 32.5232 30.0616 32.1301 29.3478 31.4158C28.6356 30.7041 28.2429 29.7552 28.2429 28.7451H30.312C30.312 29.2023 30.4891 29.6311 30.8106 29.9526C31.1342 30.2762 31.5638 30.4541 32.021 30.4541H33.8497C34.3069 30.4541 34.7369 30.2758 35.0605 29.9526C35.3816 29.6302 35.5595 29.2007 35.5595 28.7451C35.5595 28.2886 35.382 27.8595 35.0592 27.5359C34.7373 27.2136 34.3073 27.0356 33.8497 27.0356H32.021C31.0101 27.0356 30.0608 26.6425 29.3478 25.9287C28.6352 25.2169 28.2429 24.2676 28.2429 23.2571C28.2429 22.2453 28.6356 21.2961 29.349 20.5847C30.0604 19.8721 31.0101 19.4786 32.021 19.4786H33.8497C34.8598 19.4786 35.8095 19.8717 36.5233 20.586C37.2363 21.3006 37.6286 22.2491 37.6286 23.2571H35.5595C35.5595 22.8007 35.382 22.3716 35.0592 22.048C34.7369 21.7256 34.3073 21.5476 33.8497 21.5476H32.021C31.5633 21.5476 31.1342 21.7256 30.8119 22.048C30.4887 22.3703 30.312 22.799 30.312 23.2571C30.312 23.7152 30.4891 24.1443 30.811 24.4663C31.1338 24.789 31.5633 24.9666 32.021 24.9666H33.8497C34.8602 24.9666 35.8103 25.3601 36.5233 26.0743C37.2363 26.7886 37.6286 27.737 37.6286 28.7451C37.6286 29.7519 37.2367 30.6999 36.5245 31.4142C35.8086 32.1301 34.8594 32.5232 33.8497 32.5232" fill="#191148"/>
<path d="M33.9712 20.5129H31.9021V17.7417H33.9712V20.5129Z" fill="#191148"/>
<path d="M33.9712 34.2593H31.9021V31.4884H33.9712V34.2593Z" fill="#191148"/>
<path d="M22.8737 33.5641L23.6032 34.376C25.9812 37.0223 29.3835 38.5406 32.9369 38.5414C39.8513 38.5414 45.4766 32.9152 45.4766 26.0004C45.4766 19.0848 39.8513 13.4586 32.9369 13.4586C26.0213 13.459 20.3949 19.0848 20.3949 26V36.0436L22.8737 33.5641ZM18.3258 41.0383V26C18.3258 17.9439 24.8802 11.39 32.9369 11.3896C40.9922 11.3896 47.5457 17.9439 47.5457 26.0004C47.5457 34.0565 40.9922 40.6105 32.9369 40.6105H32.9365C29.1613 40.6096 25.533 39.1385 22.8223 36.5418L18.3258 41.0383" fill="#191148"/>
</svg>
