<svg width="24" height="24" viewBox="0 0 24 24" fill="none" xmlns="http://www.w3.org/2000/svg">
<path d="M12.2716 23.7865C5.82815 23.7865 0.60498 18.5633 0.60498 12.1198C0.60498 6.89546 4.03848 2.47379 8.77165 0.987458V3.46546C6.76606 4.27984 5.10574 5.76578 4.07472 7.66909C3.04369 9.5724 2.70601 11.7748 3.11944 13.8996C3.53288 16.0244 4.67174 17.9395 6.34121 19.3173C8.01068 20.6952 10.107 21.4502 12.2716 21.4531C14.1311 21.4531 15.9481 20.8978 17.49 19.8586C19.0318 18.8193 20.2283 17.3433 20.926 15.6198H23.404C21.9176 20.353 17.496 23.7865 12.2716 23.7865V23.7865ZM23.88 13.2865H11.105V0.511458C11.4888 0.472958 11.8785 0.453125 12.2716 0.453125C18.7151 0.453125 23.9383 5.67629 23.9383 12.1198C23.9383 12.513 23.9185 12.9026 23.88 13.2865ZM13.4383 2.85879V10.9531H21.5326C21.273 8.897 20.3367 6.98568 18.8712 5.52023C17.4058 4.05478 15.4944 3.11847 13.4383 2.85879Z" fill="#4E3BF0"/>
</svg>
